# xmcd CD database file
#
# Track frame offsets:
#	150
#	10660
#	23572
#	35590
#	57150
#	69065
#	79932
#	92927
#	101145
#	122510
#	130680
#	146535
#	157830
#	170230
#
# Disc length: 2416 seconds
#
# Revision: 1
# Processed by: cddbd v1.5.2PL0 Copyright (c) Steve Scherf et al.
# Submitted via: jetAudio 7
#
DISCID=ac096e0e
DTITLE=Various Artist - We Love You Bobby!  A Tribute to Bobby Bland
DYEAR=1900
DGENRE=Blues
TTITLE0=You're the One
TTITLE1=Who Can Tell
TTITLE2=One of These Days
TTITLE3=Cry Cry Cry
TTITLE4=Down the Aisle
TTITLE5=I'm Not Ashamed
TTITLE6=She's Mine
TTITLE7=Farther On Up the Road
TTITLE8=Two Steps from the Blues
TTITLE9=Go On
TTITLE10=St. James Infirmary
TTITLE11=As the Years Go Passing By
TTITLE12=Honey Child
TTITLE13=I Pity the Fool
EXTD=
EXTT0=
EXTT1=
EXTT2=
EXTT3=
EXTT4=
EXTT5=
EXTT6=
EXTT7=
EXTT8=
EXTT9=
EXTT10=
EXTT11=
EXTT12=
EXTT13=
PLAYORDER=
